<svg width="1440" height="1405" viewBox="0 0 1440 1405" fill="none" xmlns="http://www.w3.org/2000/svg">
<g filter="url(#filter0_f_1594_3443)">
<ellipse cx="720" cy="702.5" rx="910" ry="402.5" fill="#2A2A2A"/>
<ellipse cx="720" cy="702.5" rx="910" ry="402.5" fill="url(#paint0_radial_1594_3443)"/>
</g>
<rect width="121.137" height="121.137" rx="15" transform="matrix(0.909163 0.416441 0.416441 -0.909163 -50 1146.13)" fill="url(#paint1_linear_1594_3443)"/>
<rect width="79.4736" height="79.4736" rx="15" transform="matrix(0.97223 -0.234027 -0.234032 -0.972229 -22.6582 999.608)" fill="url(#paint2_linear_1594_3443)"/>
<rect width="121.137" height="121.137" rx="15" transform="matrix(0.909163 0.416441 0.416441 -0.909163 1266.28 871.413)" fill="url(#paint3_linear_1594_3443)"/>
<rect width="157.407" height="157.407" rx="15" transform="matrix(0.999075 0.0430006 0.0430006 -0.999075 1223.09 1105.3)" fill="url(#paint4_linear_1594_3443)"/>
<rect width="85.3156" height="85.3156" rx="15" transform="matrix(0.586057 -0.81027 -0.810267 -0.586061 1356.18 735.535)" fill="url(#paint5_linear_1594_3443)"/>
<rect width="54.6378" height="54.6378" rx="15" transform="matrix(0.586053 -0.810273 -0.810264 -0.586065 1317.59 570.203)" fill="url(#paint6_linear_1594_3443)"/>
<defs>
<filter id="filter0_f_1594_3443" x="-490" y="0" width="2420" height="1405" filterUnits="userSpaceOnUse" color-interpolation-filters="sRGB">
<feFlood flood-opacity="0" result="BackgroundImageFix"/>
<feBlend mode="normal" in="SourceGraphic" in2="BackgroundImageFix" result="shape"/>
<feGaussianBlur stdDeviation="150" result="effect1_foregroundBlur_1594_3443"/>
</filter>
<radialGradient id="paint0_radial_1594_3443" cx="0" cy="0" r="1" gradientUnits="userSpaceOnUse" gradientTransform="translate(719.324 724.508) scale(847.171 961.787)">
<stop stop-color="#282828"/>
<stop offset="1"/>
</radialGradient>
<linearGradient id="paint1_linear_1594_3443" x1="60.5683" y1="0" x2="60.5683" y2="121.137" gradientUnits="userSpaceOnUse">
<stop stop-color="#FCC026"/>
<stop offset="1" stop-color="#FC8B26"/>
</linearGradient>
<linearGradient id="paint2_linear_1594_3443" x1="39.7368" y1="0" x2="39.7368" y2="79.4736" gradientUnits="userSpaceOnUse">
<stop stop-color="#FCC026"/>
<stop offset="1" stop-color="#FC8B26"/>
</linearGradient>
<linearGradient id="paint3_linear_1594_3443" x1="60.5683" y1="0" x2="60.5683" y2="121.137" gradientUnits="userSpaceOnUse">
<stop stop-color="#FCC026"/>
<stop offset="1" stop-color="#FC8B26"/>
</linearGradient>
<linearGradient id="paint4_linear_1594_3443" x1="78.7037" y1="0" x2="78.7037" y2="157.407" gradientUnits="userSpaceOnUse">
<stop stop-color="#FCC026"/>
<stop offset="1" stop-color="#FC8B26"/>
</linearGradient>
<linearGradient id="paint5_linear_1594_3443" x1="42.6578" y1="0" x2="42.6578" y2="85.3156" gradientUnits="userSpaceOnUse">
<stop stop-color="#FCC026"/>
<stop offset="1" stop-color="#FC8B26"/>
</linearGradient>
<linearGradient id="paint6_linear_1594_3443" x1="27.3189" y1="0" x2="27.3189" y2="54.6378" gradientUnits="userSpaceOnUse">
<stop stop-color="#FCC026"/>
<stop offset="1" stop-color="#FC8B26"/>
</linearGradient>
</defs>
</svg>
