<svg width="30" height="39" viewBox="0 0 30 39" fill="none" xmlns="http://www.w3.org/2000/svg">
<path d="M14.625 39C14.625 39 29.25 25.1404 29.25 14.625C29.25 10.7462 27.7092 7.02628 24.9664 4.28356C22.2237 1.54084 18.5038 0 14.625 0C10.7462 0 7.02628 1.54084 4.28356 4.28356C1.54084 7.02628 5.77985e-08 10.7462 0 14.625C0 25.1404 14.625 39 14.625 39ZM14.625 21.9375C12.6856 21.9375 10.8256 21.1671 9.45428 19.7957C8.08292 18.4244 7.3125 16.5644 7.3125 14.625C7.3125 12.6856 8.08292 10.8256 9.45428 9.45428C10.8256 8.08292 12.6856 7.3125 14.625 7.3125C16.5644 7.3125 18.4244 8.08292 19.7957 9.45428C21.1671 10.8256 21.9375 12.6856 21.9375 14.625C21.9375 16.5644 21.1671 18.4244 19.7957 19.7957C18.4244 21.1671 16.5644 21.9375 14.625 21.9375Z" fill="#FC8B26"/>
</svg>
