<svg width="38" height="38" viewBox="0 0 38 38" fill="none" xmlns="http://www.w3.org/2000/svg">
<path d="M2 6.5L6 1.5H7.5L13.5 6.5L14 9.5L9.5 14C11.1667 16.1667 14.5 20.6 14.5 21C14.5 21.4 20.8333 26.1667 24 28.5L29.5 24L36.5 31C36 31.8333 35 33.6 35 34C35 34.5 30.5 36.5 30 36.5C29.6 36.5 24.5 36.1667 22 36L14.5 32C11.8333 29 6.4 23 6 23C5.6 23 2.83333 16.6667 1.5 13.5L2 6.5Z" fill="#FC8B26"/>
<path d="M27.8484 38C26.3698 37.989 24.8978 37.8034 23.4628 37.4471C18.5072 36.2514 13.4042 33.2183 9.09604 28.9064C4.78791 24.5945 1.75105 19.4906 0.555403 14.5397C-0.703575 9.33177 0.194345 4.8762 3.08092 1.98962L3.90512 1.16543C4.6529 0.419136 5.66622 0 6.7227 0C7.77917 0 8.79249 0.419136 9.54027 1.16543L14.2766 5.90077C15.0233 6.64832 15.4428 7.66173 15.4428 8.71835C15.4428 9.77498 15.0233 10.7884 14.2766 11.5359L11.4788 14.3327C12.82 16.6862 14.6442 19.0416 16.8002 21.1976C18.9561 23.3535 21.3134 25.1786 23.666 26.5199L26.4628 23.7221C26.8327 23.352 27.272 23.0584 27.7554 22.8581C28.2389 22.6578 28.757 22.5547 29.2803 22.5547C29.8036 22.5547 30.3218 22.6578 30.8053 22.8581C31.2887 23.0584 31.728 23.352 32.0979 23.7221L36.8333 28.4575C37.5802 29.2047 37.9998 30.218 37.9998 31.2746C37.9998 32.3311 37.5802 33.3444 36.8333 34.0917L36.0081 34.9159C33.9732 36.9546 31.1565 38 27.8484 38ZM6.7227 2.83367C6.57178 2.83292 6.42224 2.86229 6.28283 2.92007C6.14341 2.97785 6.01693 3.06287 5.91079 3.17015L5.08565 3.99435C2.92402 6.15597 2.29264 9.66542 3.30776 13.8705C4.38243 18.3252 7.14897 22.9537 11.097 26.9008C15.045 30.8478 19.6726 33.6115 24.1282 34.69C28.3342 35.7051 31.8418 35.0737 34.0034 32.9121L34.8276 32.0879C35.0429 31.8724 35.1639 31.5802 35.1639 31.2755C35.1639 30.9709 35.0429 30.6787 34.8276 30.4631L30.0932 25.7278C29.8777 25.5125 29.5855 25.3915 29.2808 25.3915C28.9761 25.3915 28.6839 25.5125 28.4684 25.7278L24.9231 29.2732C24.7103 29.486 24.4354 29.6257 24.138 29.6719C23.8407 29.7181 23.5363 29.6685 23.269 29.5303C20.3626 28.0274 17.4325 25.8393 14.7955 23.2023C12.1584 20.5652 9.97506 17.6371 8.46844 14.7306C8.33008 14.4634 8.28033 14.1591 8.32638 13.8618C8.37243 13.5644 8.51189 13.2894 8.72458 13.0766L12.2709 9.53121C12.4862 9.31569 12.6072 9.02349 12.6072 8.71883C12.6072 8.41416 12.4862 8.12196 12.2709 7.90644L7.53555 3.17015C7.42908 3.06306 7.3024 2.97817 7.16286 2.9204C7.02333 2.86264 6.87371 2.83316 6.7227 2.83367Z" fill="#FC8B26"/>
<path d="M29.3619 20.9556C28.9859 20.9556 28.6253 20.8062 28.3594 20.5403C28.0935 20.2744 27.9442 19.9138 27.9442 19.5378C27.9414 17.0506 26.9522 14.666 25.1936 12.9072C23.435 11.1484 21.0505 10.159 18.5633 10.156C18.1873 10.156 17.8266 10.0066 17.5608 9.74072C17.2949 9.47483 17.1455 9.11422 17.1455 8.7382C17.1455 8.36219 17.2949 8.00157 17.5608 7.73569C17.8266 7.46981 18.1873 7.32043 18.5633 7.32043C25.2996 7.32043 30.7797 12.8025 30.7797 19.5378C30.7797 19.9138 30.6303 20.2744 30.3645 20.5403C30.0986 20.8062 29.738 20.9556 29.3619 20.9556Z" fill="#FC8B26"/>
<path d="M35.3544 20.9556C34.9784 20.9556 34.6178 20.8062 34.3519 20.5403C34.086 20.2744 33.9366 19.9138 33.9366 19.5378C33.9366 11.0605 27.0368 4.16352 18.5633 4.16352C18.1873 4.16352 17.8266 4.01415 17.5608 3.74827C17.2949 3.48239 17.1455 3.12177 17.1455 2.74576C17.1455 2.36974 17.2949 2.00913 17.5608 1.74324C17.8266 1.47736 18.1873 1.32799 18.5633 1.32799C28.6039 1.32799 36.7722 9.49717 36.7722 19.5378C36.7722 19.9138 36.6228 20.2744 36.3569 20.5403C36.091 20.8062 35.7304 20.9556 35.3544 20.9556Z" fill="#FC8B26"/>
</svg>
