<svg width="74" height="33" viewBox="0 0 74 33" fill="none" xmlns="http://www.w3.org/2000/svg">
<path d="M70.0271 10.5706H66.9176L64.3662 5.54756C62.6918 2.35831 59.1039 0.205566 55.1173 0.205566H33.6696C31.0385 0.205566 28.4871 1.16234 26.5735 2.8367L17.6436 10.6504L7.99613 12.4045C3.8501 13.122 0.820312 16.7897 0.820312 21.0154V23.4871C0.820312 25.1615 2.17575 26.5169 3.8501 26.5169H10.707C11.4246 29.7062 14.2949 32.0184 17.6436 32.0184C20.9923 32.0184 23.8627 29.7062 24.5802 26.5169H52.6457C53.3632 29.7062 56.2336 32.0184 59.5823 32.0184C62.931 32.0184 65.8013 29.7062 66.5189 26.5169H72.5785C73.0569 26.5169 73.3758 26.198 73.3758 25.7196V14.0788C73.4555 12.1653 71.9406 10.5706 70.0271 10.5706ZM17.7233 30.5035C14.9328 30.5035 12.5408 28.4305 12.2219 25.6399C12.2219 25.4007 12.1422 25.1615 12.1422 24.9223C12.1422 21.8925 14.6138 19.4208 17.6436 19.4208C20.6734 19.4208 23.1451 21.8925 23.1451 24.9223C23.1451 25.1615 23.1451 25.4007 23.0653 25.6399C22.8262 28.4305 20.4342 30.5035 17.7233 30.5035ZM59.662 30.5035C56.8714 30.5035 54.5592 28.4305 54.1606 25.6399C54.1606 25.4007 54.0808 25.1615 54.0808 24.9223C54.0808 21.8925 56.5525 19.4208 59.5823 19.4208C62.054 19.4208 64.127 21.0952 64.8446 23.3276C65.004 23.8858 65.0837 24.3642 65.0837 25.002C65.0837 25.2412 65.0837 25.4804 65.004 25.7196C64.7648 28.4305 62.3729 30.5035 59.662 30.5035ZM71.8609 24.9223H66.7581C66.7581 21.0154 63.5688 17.8262 59.662 17.8262C55.7552 17.8262 52.5659 21.0154 52.5659 24.9223H24.8194C24.8194 21.0154 21.6302 17.8262 17.7233 17.8262C13.8165 17.8262 10.6273 21.0154 10.6273 24.9223H4.00956C3.21225 24.9223 2.5744 24.2844 2.5744 23.4871V21.0154C2.5744 17.587 5.04607 14.5572 8.47452 13.9991L18.2017 12.1653C18.2815 12.1653 18.3612 12.0855 18.4409 12.0855L50.6524 12.1653C53.2038 12.1653 55.7552 11.5274 57.9877 10.4112L61.9742 8.41789L61.2566 6.98273L57.2701 8.97601C55.1971 10.0125 52.9646 10.5706 50.6524 10.5706H45.5496V5.78676H43.9549V10.5706H20.2748L27.6898 4.03267C29.2844 2.59751 31.5169 1.80019 33.7493 1.80019H55.1173C58.466 1.80019 61.5756 3.55428 62.931 6.26514L65.7216 11.7666C65.8811 12.0058 66.1203 12.1653 66.4392 12.1653H70.0271C71.0636 12.1653 71.8609 12.9626 71.8609 13.9991V24.9223Z" fill="url(#paint0_linear_2_1201)"/>
<defs>
<linearGradient id="paint0_linear_2_1201" x1="37.0996" y1="0.205566" x2="37.0996" y2="32.0184" gradientUnits="userSpaceOnUse">
<stop stop-color="#FCC026"/>
<stop offset="1" stop-color="#FC8B26"/>
</linearGradient>
</defs>
</svg>
