<svg width="63" height="63" viewBox="0 0 63 63" fill="none" xmlns="http://www.w3.org/2000/svg">
<path d="M31.3234 58.4866C31.9 58.4866 32.3675 58.0192 32.3675 57.4425C32.3675 56.8659 31.9 56.3984 31.3234 56.3984C30.7468 56.3984 30.2793 56.8659 30.2793 57.4425C30.2793 58.0192 30.7468 58.4866 31.3234 58.4866Z" fill="url(#paint0_linear_2_1120)"/>
<path d="M42.4218 45.3099C47.1884 42.8257 50.9837 38.8141 53.2003 33.9173C55.4169 29.0205 55.9266 23.5216 54.6478 18.3009C53.3689 13.0801 50.3755 8.43928 46.1467 5.1213C41.9179 1.80332 36.6981 0 31.323 0C25.9479 0 20.7282 1.80332 16.4993 5.1213C12.2705 8.43928 9.27712 13.0801 7.99827 18.3009C6.71943 23.5216 7.22909 29.0205 9.44568 33.9173C11.6623 38.8141 15.4576 42.8257 20.2242 45.3099C6.79709 46.3123 0 49.1627 0 53.788C0 61.0967 17.0293 62.6629 31.323 62.6629C45.6167 62.6629 62.646 61.1281 62.646 53.788C62.646 49.1627 55.8489 46.3123 42.4218 45.3099ZM9.3969 24.0312C9.39616 20.0935 10.4559 16.2282 12.4647 12.8415C14.4735 9.45469 17.3573 6.67139 20.8132 4.78393C24.269 2.89646 28.1694 1.97449 32.1046 2.11486C36.0398 2.25523 39.8646 3.45275 43.1772 5.58165C46.4898 7.71054 49.168 10.6922 50.9304 14.2135C52.6928 17.7348 53.4744 21.6657 53.1931 25.5934C52.9118 29.521 51.578 33.3004 49.3317 36.5346C47.0855 39.7688 44.0098 42.3384 40.4276 43.9735C40.3124 44.0245 40.2092 44.0992 40.1248 44.1928L32.0121 52.3263C31.8253 52.4799 31.591 52.5638 31.3491 52.5638C31.1073 52.5638 30.8729 52.4799 30.6861 52.3263L22.5212 44.151C22.4368 44.0575 22.3337 43.9828 22.2185 43.9317C18.4058 42.183 15.1728 39.3803 12.901 35.8542C10.6292 32.3281 9.41335 28.2257 9.3969 24.0312ZM31.323 60.5747C13.2914 60.5747 2.0882 57.9749 2.0882 53.788C2.0882 50.3634 9.5744 47.9933 22.6257 47.2415L24.6512 49.3297C18.0943 49.643 9.3969 50.7184 9.3969 53.788C9.3969 57.2649 20.4853 58.1733 27.1466 58.4134C27.4235 58.4134 27.6891 58.3034 27.8849 58.1076C28.0807 57.9118 28.1907 57.6462 28.1907 57.3693C28.1907 57.0924 28.0807 56.8268 27.8849 56.631C27.6891 56.4352 27.4235 56.3252 27.1466 56.3252C17.1546 55.9702 12.5292 54.5294 11.5791 53.788C12.4979 53.0572 16.998 51.6998 26.6246 51.2718L29.2348 53.8924C29.7968 54.3881 30.5215 54.6594 31.2708 54.6546C32.0407 54.6453 32.7816 54.36 33.359 53.8507L35.9275 51.2718C45.6272 51.6581 50.1168 53.0572 51.0461 53.788C50.1168 54.5294 45.481 55.9702 35.4785 56.3252C35.2016 56.3252 34.936 56.4352 34.7402 56.631C34.5444 56.8268 34.4344 57.0924 34.4344 57.3693C34.4344 57.6462 34.5444 57.9118 34.7402 58.1076C34.936 58.3034 35.2016 58.4134 35.4785 58.4134C42.0877 58.1733 53.2282 57.2649 53.2282 53.788C53.2282 50.7184 44.5309 49.6116 37.9739 49.2775L39.9995 47.1893C53.0716 48.0455 60.5578 50.3634 60.5578 53.788C60.5578 57.9749 49.3546 60.5747 31.323 60.5747Z" fill="url(#paint1_linear_2_1120)"/>
<path d="M51.1612 24.0313C51.1612 20.1077 49.9977 16.2723 47.8179 13.0099C45.6381 9.7476 42.5398 7.20492 38.9149 5.70344C35.29 4.20195 31.3013 3.8091 27.4531 4.57455C23.6049 5.34 20.0701 7.22938 17.2958 10.0038C14.5214 12.7781 12.632 16.3129 11.8665 20.1611C11.1011 24.0093 11.4939 27.998 12.9954 31.6229C14.4969 35.2478 17.0396 38.3461 20.3019 40.5259C23.5642 42.7057 27.3997 43.8692 31.3233 43.8692C33.9284 43.8692 36.5081 43.3561 38.9149 42.3591C41.3218 41.3622 43.5087 39.9009 45.3508 38.0588C47.1929 36.2167 48.6542 34.0298 49.6511 31.6229C50.6481 29.2161 51.1612 26.6364 51.1612 24.0313ZM13.5736 24.0313C13.5736 20.5207 14.6146 17.089 16.5649 14.1701C18.5153 11.2511 21.2874 8.97612 24.5308 7.63269C27.7741 6.28925 31.343 5.93775 34.7861 6.62263C38.2292 7.3075 41.3919 8.998 43.8742 11.4803C46.3566 13.9627 48.047 17.1254 48.7319 20.5685C49.4168 24.0116 49.0653 27.5805 47.7219 30.8238C46.3784 34.0671 44.1034 36.8393 41.1845 38.7896C38.2656 40.74 34.8338 41.781 31.3233 41.781C26.6158 41.781 22.101 39.9109 18.7723 36.5822C15.4436 33.2535 13.5736 28.7388 13.5736 24.0313Z" fill="url(#paint2_linear_2_1120)"/>
<path d="M37.306 26.4847C37.0004 25.8465 36.5188 25.2736 35.8635 24.7662C35.2076 24.2592 34.1755 23.7123 32.7678 23.1265C31.5173 22.6107 30.6513 22.1951 30.1708 21.8806C29.6898 21.5657 29.3442 21.2315 29.1346 20.8771C28.9249 20.5227 28.8196 20.0962 28.8196 19.5981C28.8196 18.8721 29.0821 18.2884 29.6067 17.8468C30.1319 17.4053 30.9014 17.1842 31.9153 17.1842C33.2535 17.1842 34.7754 17.5428 36.4804 18.2599L37.4772 15.7018C36.0622 15.076 34.6415 14.6967 33.2161 14.5576V11.9004H30.589V14.5893C29.3177 14.7652 28.2592 15.1922 27.416 15.8735C26.2796 16.7914 25.7109 18.0507 25.7109 19.651C25.7109 20.9275 26.069 22.0207 26.7861 22.9304C27.5032 23.84 28.7361 24.6489 30.4852 25.3567C32.182 26.0385 33.3012 26.6295 33.8429 27.1281C34.3857 27.6268 34.6565 28.2339 34.6565 28.9515C34.6565 29.747 34.3613 30.3805 33.7708 30.8527C33.1803 31.3259 32.265 31.561 31.0228 31.561C30.1744 31.561 29.2586 31.4432 28.2748 31.2071C27.291 30.971 26.3616 30.6478 25.4873 30.2363V33.2007C26.8203 33.8508 28.5233 34.184 30.5885 34.2063V36.8069H33.2151V33.9681C34.2793 33.7341 35.1817 33.332 35.9148 32.7549C37.1482 31.7841 37.7647 30.4464 37.7647 28.7408C37.7657 27.8764 37.6121 27.1235 37.306 26.4847Z" fill="url(#paint3_linear_2_1120)"/>
<defs>
<linearGradient id="paint0_linear_2_1120" x1="31.3234" y1="56.3984" x2="31.3234" y2="58.4866" gradientUnits="userSpaceOnUse">
<stop stop-color="#FCC026"/>
<stop offset="1" stop-color="#FC8B26"/>
</linearGradient>
<linearGradient id="paint1_linear_2_1120" x1="31.323" y1="0" x2="31.323" y2="62.6629" gradientUnits="userSpaceOnUse">
<stop stop-color="#FCC026"/>
<stop offset="1" stop-color="#FC8B26"/>
</linearGradient>
<linearGradient id="paint2_linear_2_1120" x1="31.3233" y1="4.19336" x2="31.3233" y2="43.8692" gradientUnits="userSpaceOnUse">
<stop stop-color="#FCC026"/>
<stop offset="1" stop-color="#FC8B26"/>
</linearGradient>
<linearGradient id="paint3_linear_2_1120" x1="31.626" y1="11.9004" x2="31.626" y2="36.8069" gradientUnits="userSpaceOnUse">
<stop stop-color="#FCC026"/>
<stop offset="1" stop-color="#FC8B26"/>
</linearGradient>
</defs>
</svg>
