<svg width="54" height="44" viewBox="0 0 54 44" fill="none" xmlns="http://www.w3.org/2000/svg">
<path d="M52.2725 41.2622H50.4384V14.6675C50.4384 14.6675 50.4384 14.5941 50.4384 14.5666C50.4436 14.5056 50.4436 14.4442 50.4384 14.3832C50.4194 14.3259 50.3948 14.2706 50.365 14.2181L50.2641 14.0805C50.2252 14.0309 50.1788 13.9876 50.1266 13.9521C50.1266 13.9521 50.0807 13.8971 50.044 13.8788L27.1175 0.122863C26.9781 0.0423744 26.82 0 26.659 0C26.498 0 26.3399 0.0423744 26.2004 0.122863L3.27391 13.8788C3.27391 13.8788 3.21889 13.9338 3.19137 13.9521C3.1392 13.9876 3.0928 14.0309 3.05381 14.0805C3.01505 14.1257 2.98123 14.1749 2.95294 14.2273C2.92128 14.2755 2.89658 14.328 2.87957 14.3832C2.87438 14.4442 2.87438 14.5056 2.87957 14.5666L2.75118 14.6675V41.2622H0.917061C0.673842 41.2622 0.440583 41.3589 0.268601 41.5308C0.0966187 41.7028 0 41.9361 0 42.1793C0 42.4225 0.0966187 42.6558 0.268601 42.8278C0.440583 42.9997 0.673842 43.0964 0.917061 43.0964H52.2725C52.5157 43.0964 52.749 42.9997 52.921 42.8278C53.0929 42.6558 53.1896 42.4225 53.1896 42.1793C53.1896 41.9361 53.0929 41.7028 52.921 41.5308C52.749 41.3589 52.5157 41.2622 52.2725 41.2622ZM11.0047 41.2622V21.0869H42.1848V41.2622H11.0047ZM44.019 41.2622V20.1698C44.019 19.9266 43.9223 19.6933 43.7504 19.5214C43.5784 19.3494 43.3451 19.2528 43.1019 19.2528H10.0877C9.84446 19.2528 9.6112 19.3494 9.43922 19.5214C9.26723 19.6933 9.17061 19.9266 9.17061 20.1698V41.2622H4.58531V15.1902L26.5948 1.9845L48.6043 15.1902V41.2622H44.019Z" fill="url(#paint0_linear_2_1158)"/>
<path d="M29.3462 15.5845H23.8438C23.6006 15.5845 23.3673 15.6811 23.1954 15.8531C23.0234 16.0251 22.9268 16.2583 22.9268 16.5015C22.9268 16.7448 23.0234 16.978 23.1954 17.15C23.3673 17.322 23.6006 17.4186 23.8438 17.4186H29.3462C29.5894 17.4186 29.8227 17.322 29.9946 17.15C30.1666 16.978 30.2632 16.7448 30.2632 16.5015C30.2632 16.2583 30.1666 16.0251 29.9946 15.8531C29.8227 15.6811 29.5894 15.5845 29.3462 15.5845Z" fill="url(#paint1_linear_2_1158)"/>
<path d="M34.848 24.7549H18.3409C18.0977 24.7549 17.8644 24.8515 17.6924 25.0235C17.5204 25.1955 17.4238 25.4287 17.4238 25.6719C17.4238 25.9152 17.5204 26.1484 17.6924 26.3204C17.8644 26.4924 18.0977 26.589 18.3409 26.589H34.848C35.0912 26.589 35.3245 26.4924 35.4965 26.3204C35.6684 26.1484 35.7651 25.9152 35.7651 25.6719C35.7651 25.4287 35.6684 25.1955 35.4965 25.0235C35.3245 24.8515 35.0912 24.7549 34.848 24.7549Z" fill="url(#paint2_linear_2_1158)"/>
<path d="M34.848 30.2573H18.3409C18.0977 30.2573 17.8644 30.3539 17.6924 30.5259C17.5204 30.6979 17.4238 30.9312 17.4238 31.1744C17.4238 31.4176 17.5204 31.6509 17.6924 31.8228C17.8644 31.9948 18.0977 32.0914 18.3409 32.0914H34.848C35.0912 32.0914 35.3245 31.9948 35.4965 31.8228C35.6684 31.6509 35.7651 31.4176 35.7651 31.1744C35.7651 30.9312 35.6684 30.6979 35.4965 30.5259C35.3245 30.3539 35.0912 30.2573 34.848 30.2573Z" fill="url(#paint3_linear_2_1158)"/>
<path d="M34.848 35.7598H18.3409C18.0977 35.7598 17.8644 35.8564 17.6924 36.0284C17.5204 36.2003 17.4238 36.4336 17.4238 36.6768C17.4238 36.92 17.5204 37.1533 17.6924 37.3253C17.8644 37.4973 18.0977 37.5939 18.3409 37.5939H34.848C35.0912 37.5939 35.3245 37.4973 35.4965 37.3253C35.6684 37.1533 35.7651 36.92 35.7651 36.6768C35.7651 36.4336 35.6684 36.2003 35.4965 36.0284C35.3245 35.8564 35.0912 35.7598 34.848 35.7598Z" fill="url(#paint4_linear_2_1158)"/>
<defs>
<linearGradient id="paint0_linear_2_1158" x1="26.5948" y1="0" x2="26.5948" y2="43.0964" gradientUnits="userSpaceOnUse">
<stop stop-color="#FCC026"/>
<stop offset="1" stop-color="#FC8B26"/>
</linearGradient>
<linearGradient id="paint1_linear_2_1158" x1="26.595" y1="15.5845" x2="26.595" y2="17.4186" gradientUnits="userSpaceOnUse">
<stop stop-color="#FCC026"/>
<stop offset="1" stop-color="#FC8B26"/>
</linearGradient>
<linearGradient id="paint2_linear_2_1158" x1="26.5944" y1="24.7549" x2="26.5944" y2="26.589" gradientUnits="userSpaceOnUse">
<stop stop-color="#FCC026"/>
<stop offset="1" stop-color="#FC8B26"/>
</linearGradient>
<linearGradient id="paint3_linear_2_1158" x1="26.5944" y1="30.2573" x2="26.5944" y2="32.0914" gradientUnits="userSpaceOnUse">
<stop stop-color="#FCC026"/>
<stop offset="1" stop-color="#FC8B26"/>
</linearGradient>
<linearGradient id="paint4_linear_2_1158" x1="26.5944" y1="35.7598" x2="26.5944" y2="37.5939" gradientUnits="userSpaceOnUse">
<stop stop-color="#FCC026"/>
<stop offset="1" stop-color="#FC8B26"/>
</linearGradient>
</defs>
</svg>
