<svg width="64" height="21" viewBox="0 0 64 21" fill="none" xmlns="http://www.w3.org/2000/svg">
<path d="M6.14551 11.5861C6.14551 10.411 5.18958 9.45508 4.01451 9.45508C2.83944 9.45508 1.88351 10.411 1.88351 11.5861C1.88351 12.7611 2.83944 13.7171 4.01451 13.7171C5.18958 13.7171 6.14551 12.7611 6.14551 11.5861ZM3.49003 11.5861C3.49003 11.2968 3.72536 11.0615 4.01464 11.0615C4.30393 11.0615 4.53926 11.2968 4.53926 11.5861C4.53926 11.8754 4.30393 12.1107 4.01464 12.1107C3.72536 12.1107 3.49003 11.8755 3.49003 11.5861Z" fill="url(#paint0_linear_2_1178)"/>
<path d="M49.6377 18.8172C51.037 19.6755 52.6482 20.129 54.2973 20.129C59.2177 20.129 63.2207 16.126 63.2207 11.2056L63.2207 9.91884L56.5894 13.1611L54.3855 12.4919L54.3855 9.33412L60.7403 6.61051L60.0828 5.78657C59.9912 5.67184 57.8575 3.09213 51.9399 3.04595L51.9399 0.990722L48.1776 0.990722L47.7672 1.70302C47.4364 2.28091 47.0558 2.83016 46.6347 3.33711C46.5335 3.45959 46.4286 3.58114 46.3237 3.69774C44.1415 6.11708 41.0212 7.50459 37.7631 7.50459L4.00717 7.50459C1.79787 7.50458 0.000326559 9.30212 0.0003265 11.5114L0.000326496 11.6611C0.000326437 13.8705 1.79787 15.6679 4.00717 15.6679L36.4888 15.6679L38.3359 15.6679C42.3707 15.6681 46.2788 16.7569 49.6377 18.8172ZM57.9124 6.07491L53.8238 7.8272L51.9399 5.50304L51.9399 4.65139C55.0386 4.67803 56.9174 5.46355 57.9124 6.07491ZM47.5174 4.77281C47.6378 4.63894 47.7573 4.50039 47.8714 4.36251C48.3276 3.8134 48.7428 3.21957 49.1059 2.59723L50.3335 2.59723L50.3335 6.0721L52.7791 9.08928L52.7791 13.683L56.7275 14.8818L61.49 12.5532C60.8557 15.9462 57.8717 18.5226 54.2973 18.5226C52.9447 18.5226 51.624 18.151 50.4776 17.4478C46.8659 15.2326 42.6674 14.0617 38.336 14.0616L36.4887 14.0616L12.3405 14.0616L12.3405 12.3893L37.9073 12.3893L37.9073 10.7829L12.3405 10.7829L12.3405 9.11096L37.7629 9.11097C41.4752 9.1111 45.0302 7.53016 47.5174 4.77281ZM10.7342 9.1111L10.7342 14.0617L10.1431 14.0617L10.1431 9.1111L10.7342 9.1111ZM1.60671 11.6612L1.60671 11.5116C1.60671 10.1879 2.68365 9.1111 4.00717 9.1111L8.53676 9.1111L8.53676 14.0617L4.00717 14.0617C2.68365 14.0617 1.60671 12.9847 1.60671 11.6612Z" fill="url(#paint1_linear_2_1178)"/>
<path d="M51.0039 14.0449L51.0039 7.52637L46.3591 7.52637L46.3591 14.0449L51.0039 14.0449ZM49.3975 9.13275L49.3975 9.98252L47.9654 9.98252L47.9654 9.13275L49.3975 9.13275ZM47.9654 12.4385L47.9654 11.5889L49.3975 11.5889L49.3975 12.4385L47.9654 12.4385Z" fill="url(#paint2_linear_2_1178)"/>
<path d="M42.1328 12.3896L42.1328 10.7832L39.5127 10.7832L39.5127 12.3896L42.1328 12.3896Z" fill="url(#paint3_linear_2_1178)"/>
<defs>
<linearGradient id="paint0_linear_2_1178" x1="6.14551" y1="11.5861" x2="1.88351" y2="11.5861" gradientUnits="userSpaceOnUse">
<stop stop-color="#FCC026"/>
<stop offset="1" stop-color="#FC8B26"/>
</linearGradient>
<linearGradient id="paint1_linear_2_1178" x1="63.2207" y1="10.5599" x2="0.000323994" y2="10.5599" gradientUnits="userSpaceOnUse">
<stop stop-color="#FCC026"/>
<stop offset="1" stop-color="#FC8B26"/>
</linearGradient>
<linearGradient id="paint2_linear_2_1178" x1="51.0039" y1="10.7856" x2="46.3591" y2="10.7856" gradientUnits="userSpaceOnUse">
<stop stop-color="#FCC026"/>
<stop offset="1" stop-color="#FC8B26"/>
</linearGradient>
<linearGradient id="paint3_linear_2_1178" x1="42.1328" y1="11.5864" x2="39.5127" y2="11.5864" gradientUnits="userSpaceOnUse">
<stop stop-color="#FCC026"/>
<stop offset="1" stop-color="#FC8B26"/>
</linearGradient>
</defs>
</svg>
