<svg width="64" height="17" viewBox="0 0 64 17" fill="none" xmlns="http://www.w3.org/2000/svg">
<path d="M63.2207 8.69887L63.2207 8.54854C63.2207 6.33937 61.4233 4.54197 59.2141 4.54197L21.3322 4.54196C18.9138 4.54196 16.5045 3.66622 14.5482 2.07617C12.9649 0.789597 10.9675 0.0810509 8.92376 0.0810508C4.00329 0.0810504 0.000326674 4.08388 0.000326543 9.00435L0.000326509 10.2911L6.63159 7.04871L8.83568 7.71804L8.83568 10.8756L2.48071 13.5993L3.13812 14.4231C3.23075 14.5394 4.10543 15.5805 6.23455 16.351C6.33696 16.3881 6.43963 16.4234 6.54297 16.4574C9.94515 17.5736 13.8147 16.8112 16.6415 14.4675C17.5791 13.6903 18.6802 13.1524 19.8263 12.9119C20.4791 12.7749 21.1486 12.7053 21.8158 12.7053L59.2141 12.7053C61.4233 12.7054 63.2207 10.9082 63.2207 8.69887ZM50.8804 6.14834L50.8804 7.86141L25.3138 7.86141L25.3138 9.46779L50.8804 9.46779L50.8804 11.0991L21.8158 11.0991C21.3646 11.0991 20.9131 11.1297 20.4644 11.1837L20.4644 6.1134C20.753 6.13482 21.0424 6.14848 21.3321 6.14848L50.8804 6.14848L50.8804 6.14834ZM52.4867 11.0991L52.4867 6.14848L53.0779 6.14848L53.0779 11.0991L52.4867 11.0991ZM61.6143 8.54854L61.6143 8.69887C61.6143 10.0224 60.5376 11.0991 59.2141 11.0991L54.6844 11.0991L54.6844 6.14848L59.2141 6.14848C60.5376 6.14835 61.6143 7.22502 61.6143 8.54854ZM15.6163 13.231C13.2108 15.2253 9.92601 15.877 7.04403 14.9312C6.95635 14.9024 6.86894 14.8724 6.78152 14.8407C6.15798 14.615 5.67084 14.3643 5.30405 14.137L10.4422 11.9351L10.4422 6.52704L6.49371 5.32828L1.73133 7.65686C2.36559 4.26366 5.34957 1.68756 8.9239 1.68756C10.5999 1.68756 12.2373 2.26827 13.5351 3.32299C15.1083 4.6018 16.9416 5.47527 18.8581 5.88369L18.8581 11.5011C17.69 11.8419 16.5798 12.4321 15.6163 13.231Z" fill="url(#paint0_linear_2_1183)"/>
<path d="M57.0751 8.66433C57.0751 9.83927 58.031 10.7952 59.2059 10.7952C60.381 10.7952 61.3369 9.83927 61.3369 8.66433C61.3369 7.48927 60.381 6.5332 59.2059 6.5332C58.031 6.5332 57.0751 7.48927 57.0751 8.66433ZM59.7305 8.66433C59.7305 8.95348 59.4953 9.18882 59.2059 9.18882C58.9166 9.18882 58.6814 8.95348 58.6814 8.66433C58.6814 8.37492 58.9168 8.13958 59.2059 8.13958C59.4953 8.13958 59.7305 8.37492 59.7305 8.66433Z" fill="url(#paint1_linear_2_1183)"/>
<path d="M23.708 9.46771L23.708 7.86133L21.088 7.86133L21.088 9.46771L23.708 9.46771Z" fill="url(#paint2_linear_2_1183)"/>
<defs>
<linearGradient id="paint0_linear_2_1183" x1="63.2207" y1="8.52197" x2="0.000324024" y2="8.52197" gradientUnits="userSpaceOnUse">
<stop stop-color="#FCC026"/>
<stop offset="1" stop-color="#FC8B26"/>
</linearGradient>
<linearGradient id="paint1_linear_2_1183" x1="61.3369" y1="8.6642" x2="57.0751" y2="8.6642" gradientUnits="userSpaceOnUse">
<stop stop-color="#FCC026"/>
<stop offset="1" stop-color="#FC8B26"/>
</linearGradient>
<linearGradient id="paint2_linear_2_1183" x1="23.708" y1="8.66452" x2="21.088" y2="8.66452" gradientUnits="userSpaceOnUse">
<stop stop-color="#FCC026"/>
<stop offset="1" stop-color="#FC8B26"/>
</linearGradient>
</defs>
</svg>
