<svg width="71" height="40" viewBox="0 0 71 40" fill="none" xmlns="http://www.w3.org/2000/svg">
<path d="M10.0007 33.2993C9.29141 33.2993 8.7168 33.8749 8.7168 34.5842C8.7168 35.2935 9.29141 35.8691 10.0007 35.8691C10.711 35.8691 11.2856 35.2936 11.2856 34.5842C11.2856 33.8749 10.711 33.2993 10.0007 33.2993Z" fill="url(#paint0_linear_2_1139)"/>
<path d="M44.17 23.4514L35.142 19.8333C33.6391 19.2305 32.0558 18.9253 30.4357 18.9253H24.9019C22.9194 18.9253 20.9368 19.4001 19.1694 20.2993L10.9892 24.4591L5.12108 25.3147C3.69866 25.5221 2.39822 26.2353 1.4574 27.3234C0.517421 28.4107 0 29.8012 0 31.2382V34.7013C0 35.2362 0.43413 35.6702 0.968949 35.6702H5.1259C5.33422 36.6131 5.81193 37.4754 6.51731 38.1634C7.45526 39.0753 8.69268 39.5782 10.0017 39.5782C11.3099 39.5782 12.5473 39.0753 13.4852 38.1634C14.1916 37.4745 14.6703 36.6101 14.8777 35.6702H32.2447C32.453 36.6131 32.9308 37.4754 33.6371 38.1625C34.5742 39.0753 35.8115 39.5782 37.1196 39.5782C38.4287 39.5782 39.6661 39.0753 40.6031 38.1634C41.3095 37.4754 41.7872 36.613 41.9956 35.6702H46.4141C46.949 35.6702 47.3831 35.2361 47.3831 34.7013V28.2014C47.3832 26.0987 46.1216 24.2344 44.17 23.4514ZM34.4211 21.6317L41.39 24.4253H36.1313L33.8164 21.4108C34.019 21.4786 34.2206 21.5523 34.4211 21.6317ZM25.8108 20.8633H30.4357C30.6121 20.8633 30.7875 20.8672 30.9618 20.8759L33.6876 24.4253H25.8108V20.8633ZM20.0472 22.027C21.2381 21.4214 22.5434 21.0436 23.8728 20.9146V24.4253H15.3312L20.0472 22.027ZM5.25093 27.2585C4.8527 28.6064 3.66377 29.618 2.22386 29.7556C2.7286 28.4892 3.85942 27.5153 5.25093 27.2585ZM10.0008 37.6403C8.31288 37.6403 6.94469 36.2721 6.94469 34.5841C6.94469 32.8962 8.31288 31.528 10.0008 31.528C11.6887 31.528 13.0569 32.8962 13.0569 34.5841C13.057 36.2721 11.6888 37.6403 10.0008 37.6403ZM37.1207 37.6403C35.4328 37.6403 34.0636 36.2721 34.0636 34.5841C34.0636 32.8962 35.4328 31.528 37.1207 31.528C38.8087 31.528 40.1769 32.8962 40.1769 34.5841C40.1769 36.2721 38.8087 37.6403 37.1207 37.6403ZM45.4452 33.7324H42.0402C41.6342 31.3836 39.5838 29.5899 37.1197 29.5899C34.6565 29.5899 32.6062 31.3836 32.2002 33.7324H14.9223C14.5163 31.3836 12.4649 29.5899 10.0018 29.5899C7.53772 29.5899 5.48738 31.3836 5.08138 33.7324H1.93799V31.7091C4.68316 31.684 6.94858 29.6181 7.28674 26.9572L11.3613 26.3632H35.6537C35.6537 26.3632 35.6537 26.3632 35.6546 26.3632C35.6546 26.3632 35.6546 26.3632 35.6556 26.3632H41.7872V27.6248C41.7872 29.3981 43.23 30.8409 45.0024 30.8409H45.4452V33.7324ZM45.4452 28.903H45.0024C44.2988 28.903 43.7252 28.3294 43.7252 27.6249V26.3633H44.8619C45.233 26.8885 45.4452 27.5241 45.4452 28.2015V28.903Z" fill="url(#paint1_linear_2_1139)"/>
<path d="M37.1208 33.2993C36.4106 33.2993 35.8359 33.8749 35.8359 34.5842C35.8359 35.2935 36.4106 35.8691 37.1208 35.8691C37.8301 35.8691 38.4047 35.2936 38.4047 34.5842C38.4047 33.8749 37.8301 33.2993 37.1208 33.2993Z" fill="url(#paint2_linear_2_1139)"/>
<path fill-rule="evenodd" clip-rule="evenodd" d="M67.0034 0.701172H39.3025C37.3807 0.701172 35.8572 2.25555 35.8572 4.19416L35.8398 25.1521C35.8398 27.0907 37.3807 28.6451 39.3025 28.6451H67.0034C68.9251 28.6451 70.466 27.0907 70.466 25.1521V4.19416C70.466 2.25555 68.9251 0.701172 67.0034 0.701172ZM47.0933 18.5329C47.0933 19.2839 46.4701 19.9126 45.7256 19.9126C45.2928 19.9126 44.8773 19.703 44.6176 19.3363L40.6009 13.7999V18.8298C40.6009 19.4411 40.1162 19.9126 39.5275 19.9126C38.9389 19.9126 38.4368 19.4236 38.4368 18.8298V10.8134C38.4368 10.0624 39.0601 9.43365 39.8045 9.43365H39.8911C40.3412 9.43365 40.7568 9.64323 41.0165 10.01L44.9292 15.5464V10.5165C44.9292 9.92267 45.414 9.43365 46.0199 9.43365C46.6259 9.43365 47.0933 9.92267 47.0933 10.5165V18.5329ZM55.7499 10.5514C55.7499 11.1627 55.2651 11.6342 54.6765 11.6342H51.4216V13.5903H54.6765C55.2824 13.5903 55.7499 14.0793 55.7499 14.6731V14.6906C55.7499 15.3019 55.2651 15.7734 54.6765 15.7734H51.4216V17.712H54.6765C55.2824 17.712 55.7499 18.2011 55.7499 18.7949C55.7499 19.4061 55.2651 19.8777 54.6765 19.8777H50.2963C49.4826 19.8777 48.8247 19.214 48.8247 18.3932V10.8832C48.8247 10.0973 49.4826 9.43365 50.2963 9.43365H54.6765C55.2824 9.43365 55.7499 9.92267 55.7499 10.5165V10.5514ZM67.869 18.1661C67.869 19.1267 67.09 19.9126 66.1377 19.9126H59.2125C58.2603 19.9126 57.4812 19.1267 57.4812 18.1661V10.5165C57.4812 9.92267 57.966 9.43365 58.5546 9.43365C59.1433 9.43365 59.628 9.92267 59.628 10.5165V17.3103H61.5844V12.2455C61.5844 11.6342 62.0692 11.1627 62.6578 11.1627C63.2465 11.1627 63.7312 11.6517 63.7312 12.2455V17.2929H65.6703V10.5165C65.6703 9.9052 66.1551 9.43365 66.7437 9.43365C67.3323 9.43365 67.8171 9.92267 67.8171 10.5165V18.1661H67.869Z" fill="url(#paint3_linear_2_1139)"/>
<defs>
<linearGradient id="paint0_linear_2_1139" x1="10.0012" y1="33.2993" x2="10.0012" y2="35.8691" gradientUnits="userSpaceOnUse">
<stop stop-color="#FCC026"/>
<stop offset="1" stop-color="#FC8B26"/>
</linearGradient>
<linearGradient id="paint1_linear_2_1139" x1="23.6915" y1="18.9253" x2="23.6915" y2="39.5782" gradientUnits="userSpaceOnUse">
<stop stop-color="#FCC026"/>
<stop offset="1" stop-color="#FC8B26"/>
</linearGradient>
<linearGradient id="paint2_linear_2_1139" x1="37.1203" y1="33.2993" x2="37.1203" y2="35.8691" gradientUnits="userSpaceOnUse">
<stop stop-color="#FCC026"/>
<stop offset="1" stop-color="#FC8B26"/>
</linearGradient>
<linearGradient id="paint3_linear_2_1139" x1="53.1529" y1="0.701172" x2="53.1529" y2="28.6451" gradientUnits="userSpaceOnUse">
<stop stop-color="#FCC026"/>
<stop offset="1" stop-color="#FC8B26"/>
</linearGradient>
</defs>
</svg>
