<svg width="54" height="71" viewBox="0 0 54 71" fill="none" xmlns="http://www.w3.org/2000/svg">
<path d="M25.6282 26.1283H27.5315C27.7298 27.4214 28.4091 28.592 29.4335 29.4057C30.4579 30.2194 31.7518 30.6163 33.0563 30.5169C34.3607 30.4174 35.5795 29.8291 36.4688 28.8695C37.358 27.9099 37.852 26.6499 37.852 25.3416C37.852 24.0334 37.358 22.7734 36.4688 21.8138C35.5795 20.8542 34.3607 20.2658 33.0563 20.1664C31.7518 20.067 30.4579 20.4638 29.4335 21.2776C28.4091 22.0913 27.7298 23.2618 27.5315 24.555H25.6282C25.4299 23.2618 24.7506 22.0913 23.7262 21.2776C22.7018 20.4638 21.4079 20.067 20.1034 20.1664C18.7989 20.2658 17.5801 20.8542 16.6909 21.8138C15.8017 22.7734 15.3076 24.0334 15.3076 25.3416C15.3076 26.6499 15.8017 27.9099 16.6909 28.8695C17.5801 29.8291 18.7989 30.4174 20.1034 30.5169C21.4079 30.6163 22.7018 30.2194 23.7262 29.4057C24.7506 28.592 25.4299 27.4214 25.6282 26.1283ZM32.6631 21.7246C33.3786 21.7243 34.078 21.9362 34.673 22.3335C35.2681 22.7307 35.7319 23.2955 36.0059 23.9564C36.2799 24.6173 36.3517 25.3446 36.2123 26.0463C36.073 26.748 35.7286 27.3927 35.2228 27.8987C34.717 28.4047 34.0726 28.7493 33.3709 28.889C32.6692 29.0287 31.9419 28.9571 31.2809 28.6834C30.6199 28.4097 30.0549 27.9461 29.6574 27.3513C29.2599 26.7564 29.0477 26.0571 29.0477 25.3416C29.0489 24.383 29.4302 23.4639 30.1079 22.7859C30.7856 22.1079 31.7045 21.7263 32.6631 21.7246ZM20.4965 28.9586C19.7811 28.9589 19.0816 28.747 18.4866 28.3498C17.8916 27.9525 17.4278 27.3877 17.1538 26.7269C16.8798 26.066 16.8079 25.3387 16.9473 24.6369C17.0867 23.9352 17.4311 23.2906 17.9368 22.7846C18.4426 22.2786 19.0871 21.9339 19.7888 21.7943C20.4904 21.6546 21.2178 21.7261 21.8788 21.9998C22.5398 22.2735 23.1048 22.7371 23.5023 23.332C23.8998 23.9268 24.112 24.6262 24.112 25.3416C24.1107 26.3003 23.7295 27.2193 23.0518 27.8973C22.374 28.5753 21.4552 28.957 20.4965 28.9586Z" fill="url(#paint0_linear_2_1102)"/>
<path d="M46.7153 48.3177C42.6186 46.4498 37.4855 44.3074 35.0839 43.3095C37.3064 41.9282 39.1594 40.0269 40.4831 37.7697C41.8068 35.5125 42.5614 32.9671 42.6819 30.3531C43.8024 30.1886 44.8413 29.6708 45.6473 28.8751C46.4533 28.0794 46.9844 27.0473 47.1633 25.929C47.3422 24.8106 47.1597 23.6643 46.6422 22.6569C46.1247 21.6494 45.2993 20.8334 44.286 20.3274C44.8012 18.3423 46.2356 11.2996 42.3117 5.98288C39.3811 2.0204 34.1801 0.0013693 26.8644 0.0013693H26.579C19.1445 -0.0603275 13.8108 1.96333 10.8463 5.98442C6.92239 11.2981 8.35684 18.3408 8.87201 20.3289C7.8587 20.835 7.03329 21.6512 6.51589 22.6588C5.99848 23.6663 5.81607 24.8127 5.99518 25.9311C6.1743 27.0495 6.7056 28.0816 7.51179 28.8772C8.31798 29.6728 9.35699 30.1904 10.4777 30.3547C10.5981 32.9684 11.3526 35.5137 12.676 37.7709C13.9994 40.0281 15.852 41.9295 18.0741 43.311C15.6741 44.3043 10.5394 46.4514 6.44424 48.3193C4.52517 49.1963 2.89798 50.6054 1.75574 52.3795C0.613497 54.1536 0.00414933 56.2181 0 58.328V63.0309C0 63.2395 0.0828768 63.4396 0.230399 63.5871C0.377922 63.7346 0.578006 63.8175 0.786635 63.8175C0.995263 63.8175 1.19535 63.7346 1.34287 63.5871C1.49039 63.4396 1.57327 63.2395 1.57327 63.0309V58.3265C1.57718 56.5182 2.09962 54.7491 3.07862 53.2287C4.05761 51.7084 5.4521 50.5008 7.09668 49.7491C9.84527 48.4966 13.0643 47.1162 15.6031 46.0473L10.4808 51.2236C10.3978 51.3082 10.3351 51.4104 10.2972 51.5227C10.2594 51.6349 10.2475 51.7542 10.2623 51.8717C10.2771 51.9893 10.3184 52.1019 10.3829 52.2012C10.4475 52.3005 10.5336 52.3839 10.635 52.4452L15.4936 55.4422L10.7245 57.6015C10.5977 57.6586 10.4883 57.7482 10.4074 57.8613C10.3266 57.9744 10.2771 58.1069 10.2641 58.2453C10.2511 58.3837 10.275 58.5231 10.3334 58.6492C10.3917 58.7754 10.4825 58.8838 10.5964 58.9635L21.0448 66.2931L26.0839 70.4916C26.2249 70.6102 26.4032 70.6753 26.5875 70.6753C26.7718 70.6753 26.9501 70.6102 27.0911 70.4916L32.1286 66.2931L42.5785 58.9635C42.6925 58.8838 42.7832 58.7754 42.8416 58.6492C42.9 58.5231 42.9239 58.3837 42.9109 58.2453C42.8979 58.1069 42.8484 57.9744 42.7675 57.8613C42.6867 57.7482 42.5773 57.6586 42.4505 57.6015L37.6798 55.4422L42.5384 52.4452C42.6392 52.3833 42.7247 52.2994 42.7885 52.1997C42.8523 52.1001 42.8928 51.9873 42.9069 51.8698C42.921 51.7524 42.9084 51.6332 42.8699 51.5213C42.8315 51.4094 42.7683 51.3077 42.685 51.2236L37.5626 46.0457C40.1014 47.1162 43.322 48.4966 46.069 49.7475C47.7137 50.4991 49.1083 51.7067 50.0873 53.227C51.0664 54.7474 51.5887 56.5167 51.5925 58.3249V63.0278C51.5925 63.2364 51.6753 63.4365 51.8228 63.584C51.9704 63.7315 52.1705 63.8144 52.3791 63.8144C52.5877 63.8144 52.7878 63.7315 52.9353 63.584C53.0828 63.4365 53.1657 63.2364 53.1657 63.0278V58.3265C53.1608 56.2159 52.5505 54.151 51.4071 52.3769C50.2638 50.6028 48.6354 49.194 46.7153 48.3177ZM12.1126 6.91913C14.7348 3.37156 19.5055 1.57464 26.3137 1.57464H26.579C33.5199 1.49443 38.3785 3.3222 41.0346 6.91142C44.4603 11.5387 43.2418 17.9459 42.776 19.8369C42.488 19.7885 42.1965 19.7642 41.9045 19.7644H41.6114C41.4402 19.7644 37.4114 19.6534 35.6222 14.2888C35.5881 14.1873 35.5336 14.0938 35.4622 14.0141C35.3908 13.9343 35.3039 13.8698 35.2068 13.8247C35.1097 13.7795 35.0044 13.7546 34.8974 13.7514C34.7904 13.7482 34.6838 13.7668 34.5842 13.806C32.013 14.7147 29.3061 15.1799 26.579 15.1819C23.8494 15.1801 21.14 14.7149 18.5661 13.806C18.4666 13.7668 18.3601 13.7482 18.2532 13.7514C18.1463 13.7547 18.0411 13.7796 17.9442 13.8248C17.8472 13.8699 17.7604 13.9344 17.6892 14.0142C17.6179 14.0939 17.5636 14.1874 17.5296 14.2888C15.7404 19.6534 11.7131 19.7629 11.5466 19.7644H11.2473C10.9548 19.7643 10.6628 19.7885 10.3743 19.8369C9.90697 17.9505 8.68692 11.5603 12.1126 6.91913ZM12.034 29.6297C12.034 29.4211 11.9511 29.221 11.8036 29.0735C11.656 28.926 11.456 28.8431 11.2473 28.8431C10.2529 28.8431 9.29914 28.4481 8.59595 27.7449C7.89276 27.0417 7.49771 26.0879 7.49771 25.0935C7.49771 24.099 7.89276 23.1453 8.59595 22.4421C9.29914 21.7389 10.2529 21.3439 11.2473 21.3439H11.5466C11.7532 21.3439 16.4592 21.2744 18.7466 15.5428C21.2803 16.3447 23.9214 16.7556 26.579 16.7613C29.2366 16.7557 31.8777 16.3448 34.4114 15.5428C36.6988 21.2744 41.4048 21.3439 41.613 21.3439H41.9107C42.9051 21.3439 43.8589 21.7389 44.5621 22.4421C45.2652 23.1453 45.6603 24.099 45.6603 25.0935C45.6603 26.0879 45.2652 27.0417 44.5621 27.7449C43.8589 28.4481 42.9051 28.8431 41.9107 28.8431C41.702 28.8431 41.502 28.926 41.3544 29.0735C41.2069 29.221 41.124 29.4211 41.124 29.6297C41.124 33.4873 39.5916 37.1869 36.8639 39.9146C34.1362 42.6423 30.4366 44.1748 26.579 44.1748C22.7214 44.1748 19.0218 42.6423 16.2941 39.9146C13.5664 37.1869 12.034 33.4873 12.034 29.6297ZM28.2294 49.9897C28.1939 50.0885 28.1288 50.1739 28.0429 50.2344C27.9571 50.2948 27.8547 50.3273 27.7497 50.3275H25.4098C25.305 50.3269 25.2028 50.2942 25.117 50.2338C25.0313 50.1734 24.9661 50.0882 24.9302 49.9897L23.2798 45.4041C25.456 45.8565 27.702 45.8565 29.8782 45.4041L28.2294 49.9897ZM19.8648 44.2827C20.3746 44.5154 20.8961 44.7213 21.4273 44.8997L23.4525 50.5249C23.5619 50.8265 23.7392 51.0988 23.9708 51.3208L21.7543 61.072L19.7337 44.3259L19.8648 44.2827ZM12.6155 58.473L17.4787 56.2658C17.6093 56.2072 17.7214 56.1142 17.803 55.9966C17.8846 55.8791 17.9325 55.7415 17.9417 55.5987C17.9509 55.4559 17.921 55.3133 17.8552 55.1862C17.7894 55.0592 17.6901 54.9525 17.5682 54.8776L12.2931 51.6247L18.2947 45.5583L20.5235 64.0103L12.6155 58.473ZM26.579 68.8628L22.3898 65.3707L25.4515 51.8977H27.7065L30.7682 65.3707L26.579 68.8628ZM35.5867 54.8792C35.4648 54.954 35.3656 55.0607 35.2997 55.1878C35.2339 55.3148 35.204 55.4574 35.2132 55.6002C35.2224 55.743 35.2704 55.8806 35.3519 55.9982C35.4335 56.1157 35.5457 56.2088 35.6762 56.2674L40.5379 58.473L32.6346 64.0103L34.8603 45.5599L40.8634 51.6262L35.5867 54.8792ZM31.4052 61.0674L29.1888 51.3162C29.4211 51.0949 29.5986 50.8223 29.707 50.5203L31.7322 44.8997C32.2634 44.7213 32.7849 44.5154 33.2947 44.2827L33.4243 44.3352L31.4052 61.0674Z" fill="url(#paint1_linear_2_1102)"/>
<path d="M32.3753 36.2729C32.4743 36.0888 32.4962 35.873 32.436 35.6728C32.3758 35.4726 32.2386 35.3046 32.0545 35.2056C31.8704 35.1066 31.6546 35.0848 31.4544 35.1449C31.2542 35.2051 31.0862 35.3423 30.9872 35.5264C30.9347 35.622 29.6807 37.84 26.5758 37.84C23.471 37.84 22.217 35.6236 22.1676 35.5264C22.1189 35.4352 22.0527 35.3546 21.9728 35.289C21.8929 35.2234 21.8009 35.1743 21.702 35.1443C21.6031 35.1142 21.4993 35.104 21.3964 35.1141C21.2936 35.1243 21.1937 35.1545 21.1026 35.2033C21.0114 35.252 20.9308 35.3182 20.8652 35.3981C20.7996 35.4779 20.7504 35.57 20.7204 35.6689C20.6904 35.7678 20.6802 35.8716 20.6903 35.9744C20.7004 36.0773 20.7307 36.1772 20.7794 36.2683C20.8488 36.3963 22.5039 39.4071 26.5758 39.4071C30.6478 39.4071 32.3075 36.401 32.3753 36.2729Z" fill="url(#paint2_linear_2_1102)"/>
<defs>
<linearGradient id="paint0_linear_2_1102" x1="26.5798" y1="20.1514" x2="26.5798" y2="30.5319" gradientUnits="userSpaceOnUse">
<stop stop-color="#FCC026"/>
<stop offset="1" stop-color="#FC8B26"/>
</linearGradient>
<linearGradient id="paint1_linear_2_1102" x1="26.5829" y1="0" x2="26.5829" y2="70.6753" gradientUnits="userSpaceOnUse">
<stop stop-color="#FCC026"/>
<stop offset="1" stop-color="#FC8B26"/>
</linearGradient>
<linearGradient id="paint2_linear_2_1102" x1="26.5779" y1="35.1104" x2="26.5779" y2="39.4071" gradientUnits="userSpaceOnUse">
<stop stop-color="#FCC026"/>
<stop offset="1" stop-color="#FC8B26"/>
</linearGradient>
</defs>
</svg>
