<svg width="1440" height="468" viewBox="0 0 1440 468" fill="none" xmlns="http://www.w3.org/2000/svg">
<rect x="-457" y="542.22" width="830.6" height="85" transform="rotate(-53.4245 -457 542.22)" fill="#8C8C8C" fill-opacity="0.03"/>
<rect x="-293" y="542.22" width="830.6" height="85" transform="rotate(-53.4245 -293 542.22)" fill="#8C8C8C" fill-opacity="0.03"/>
<rect x="-129" y="542.22" width="830.6" height="85" transform="rotate(-53.4245 -129 542.22)" fill="#8C8C8C" fill-opacity="0.03"/>
<rect x="35" y="542.22" width="830.6" height="85" transform="rotate(-53.4245 35 542.22)" fill="#8C8C8C" fill-opacity="0.03"/>
<rect x="199" y="542.22" width="830.6" height="85" transform="rotate(-53.4245 199 542.22)" fill="#8C8C8C" fill-opacity="0.03"/>
<rect x="363" y="542.22" width="830.6" height="85" transform="rotate(-53.4245 363 542.22)" fill="#8C8C8C" fill-opacity="0.03"/>
<rect x="527" y="542.22" width="830.6" height="85" transform="rotate(-53.4245 527 542.22)" fill="#8C8C8C" fill-opacity="0.03"/>
<rect x="691" y="542.22" width="830.6" height="85" transform="rotate(-53.4245 691 542.22)" fill="#8C8C8C" fill-opacity="0.03"/>
<rect x="855" y="542.22" width="830.6" height="85" transform="rotate(-53.4245 855 542.22)" fill="#8C8C8C" fill-opacity="0.03"/>
<rect x="1019" y="542.22" width="830.6" height="85" transform="rotate(-53.4245 1019 542.22)" fill="#8C8C8C" fill-opacity="0.03"/>
<rect x="1183" y="542.22" width="830.6" height="85" transform="rotate(-53.4245 1183 542.22)" fill="#8C8C8C" fill-opacity="0.03"/>
<rect x="1347" y="542.22" width="830.6" height="85" transform="rotate(-53.4245 1347 542.22)" fill="#8C8C8C" fill-opacity="0.03"/>
</svg>
